inDegrees=no
num_controls=7
num_derivatives=13
num_iterations=73
num_multipliers=7
num_parameters=0
num_slacks=7
num_states=26
objective=0.445980
objective_accelerations=0.055820
objective_balance=0.002976
objective_effort=0.021934
objective_height=0.359736
objective_ligament=0.005515
solver_duration=990.213482
status=Solve_Succeeded
success=true
DataType=double
version=3
OpenSimVersion=4.5
endheader
time	/jointset/ground_pelvis/pelvis_tilt/value	/jointset/ground_pelvis/pelvis_tx/value	/jointset/ground_pelvis/pelvis_ty/value	/jointset/hip_l/hip_flexion_l/value	/jointset/hip_l/hip_adduction_l/value	/jointset/hip_l/hip_rotation_l/value	/jointset/back/lumbar_extension/value	/jointset/patellofemoral_l/patellar_flexion_l/value	/jointset/knee_l/knee_flexion_l/value	/jointset/knee_l/knee_adduction_l/value	/jointset/knee_l/knee_rotation_l/value	/jointset/ankle_l/ankle_angle_l/value	/jointset/subtalar_l/subtalar_angle_l/value	/jointset/ground_pelvis/pelvis_tilt/speed	/jointset/ground_pelvis/pelvis_tx/speed	/jointset/ground_pelvis/pelvis_ty/speed	/jointset/hip_l/hip_flexion_l/speed	/jointset/hip_l/hip_adduction_l/speed	/jointset/hip_l/hip_rotation_l/speed	/jointset/back/lumbar_extension/speed	/jointset/patellofemoral_l/patellar_flexion_l/speed	/jointset/knee_l/knee_flexion_l/speed	/jointset/knee_l/knee_adduction_l/speed	/jointset/knee_l/knee_rotation_l/speed	/jointset/ankle_l/ankle_angle_l/speed	/jointset/subtalar_l/subtalar_angle_l/speed	/forceset/tau_hip_flexion_l	/forceset/tau_hip_adduction_l	/forceset/tau_hip_rotation_l	/forceset/tau_knee_flexion_l	/forceset/tau_ankle_angle_l	/forceset/tau_subtalar_angle_l	/forceset/tau_lumbar_extension	lambda_cid13_p0	lambda_cid13_p1	lambda_cid13_p2	lambda_cid13_p3	lambda_cid13_p4	lambda_cid13_p5	lambda_cid14_p0	/jointset/ground_pelvis/pelvis_tilt/accel	/jointset/ground_pelvis/pelvis_tx/accel	/jointset/ground_pelvis/pelvis_ty/accel	/jointset/hip_l/hip_flexion_l/accel	/jointset/hip_l/hip_adduction_l/accel	/jointset/hip_l/hip_rotation_l/accel	/jointset/back/lumbar_extension/accel	/jointset/patellofemoral_l/patellar_flexion_l/accel	/jointset/knee_l/knee_flexion_l/accel	/jointset/knee_l/knee_adduction_l/accel	/jointset/knee_l/knee_rotation_l/accel	/jointset/ankle_l/ankle_angle_l/accel	/jointset/subtalar_l/subtalar_angle_l/accel	gamma_cid13_p0	gamma_cid13_p1	gamma_cid13_p2	gamma_cid13_p3	gamma_cid13_p4	gamma_cid13_p5	gamma_cid14_p0
0.5	-0.3043761106143635	-0.02128313398248458	0.7648143485353176	1.046340419980059	-0.4376150651055213	-0.2163250647369449	-0.2538008879447045	0.8227780204034986	0.8227780204034827	-0.12434333392097	-0.1543874974581742	0.1433144432451094	-0.01387748407202257	-0.6844739263339343	-0.1735460657800154	-0.5161218050242661	2.335395728951942	-0.2142466675113276	0.7420739452747799	-0.1202725089783724	2.026091734416446	2.026091734416469	0.129209615588485	-0.09865893289516882	0.5482814518451338	0.04195667728438187	-0.1549163899667178	0.04739082541798034	-0.01163773667583981	-0.2266766284990193	0.06297060726778367	0.02054357831053041	0.1584803658867492	-12.87161036722986	-9.143932243047342	3.949585562121749	-5.210008899968521	-523.7362250678794	-42.96233933600703	-24.29583735168946	0.6919262647652167	0.5639759575903104	-0.4506764895591122	-1.306732687557369	0.7020632446781074	-0.1986956621034729	1.15728078077612	-1.333801790441408	-1.333801790441436	0.04253716366425687	0.1685386492881151	-0.5309669764816802	0.514189052893291	-5.419789902591833e-07	-2.836580674956499e-07	3.035267590574694e-06	1.800904327189512e-07	-6.276786086020645e-07	-1.462017060233248e-07	-4.451738258107571e-07
0.51	-0.3111846469950861	-0.0229902764633757	0.7596317262934206	1.069624732190513	-0.4397233303305752	-0.208913099562833	-0.2549470807572149	0.8429691106970084	0.8429691106969792	-0.1230529384197969	-0.1553650761916571	0.1487693594793668	-0.01343396496282794	-0.6771356537205971	-0.1678766347109985	-0.5202911545735497	2.321159182267802	-0.2073765956133686	0.7401727341132465	-0.1090341451131758	2.011856050584998	2.011856050585037	0.1289236501720553	-0.09686734426983243	0.5426109583267361	0.04674477842064689	-0.1596708242183144	0.04821992153671611	-0.01173085651239092	-0.2297379041291523	0.06196517224289325	0.02078967133405101	0.1621095196084483	-13.37367969395821	-9.10494239554663	3.877164986347442	-4.994217678031851	-527.1086770770664	-42.60226508661547	-23.3615581258939	0.7693628991597039	0.5693346464876375	-0.3834639420604127	-1.528326689967651	0.6835622565532847	-0.2081819934961616	1.096900450913448	-1.508904883586818	-1.508904883584306	-0.05596210845553903	0.183490212552069	-0.5987032901526385	0.4604446674396054	-5.25653316609761e-07	-1.847389825646758e-07	3.059137114187387e-06	2.02850314597985e-07	-6.094973803591738e-07	-6.241310134937119e-08	-4.366957850270913e-07
0.52	-0.3179168836217685	-0.02464054304059086	0.7544107306051414	1.092757436727909	-0.4417620782178055	-0.20152461613042	-0.255982932678765	0.8630097535113664	0.8630097535113522	-0.1217637623155895	-0.1563249347902543	0.1541648482283115	-0.01294270003758134	-0.66921397552555	-0.1621708850448237	-0.5237964943007128	2.305074194338665	-0.2003431999474537	0.7373775969389909	-0.09820433078707549	1.996002238589935	1.996002238589991	0.1289657361892574	-0.09511490590866555	0.5363959547829824	0.05150584049476806	-0.1644252584698477	0.04904901765538874	-0.01182397634838053	-0.2327991797593255	0.06095973721797045	0.02103576435746956	0.1657386733302405	-13.87932118297529	-9.065872094786966	3.805356140875831	-4.814027963229877	-530.5590890982726	-42.30297592240974	-22.42929045583662	0.808607381107324	0.5712396770218007	-0.3178745251350451	-1.676420936556622	0.7347279982693113	-0.3774808646479221	1.075570872956906	-1.657427423164437	-1.657427423164441	0.1081474503906056	0.1607085964541982	-0.6398689815529626	0.5087812404644816	-5.133737570847973e-07	-1.122991714724194e-07	3.081736621870534e-06	2.22630819040011e-07	-5.97656055365998e-07	1.464589893266244e-08	-4.315293595100579e-07
0.53	-0.3245670247751316	-0.02623358428423638	0.7491580112527245	1.115720169286032	-0.443729873719108	-0.1941677555833423	-0.2569124570561944	0.8828840434255307	0.882884043425523	-0.1204732546493164	-0.1572671326076015	0.1594956368527617	-0.01240412164740575	-0.6607099740138299	-0.1564320948706188	-0.5266343937037163	2.287159879337594	-0.1932101950677121	0.7339033532950059	-0.08777148014023503	1.978609901203535	1.978609901203537	0.1291250048415337	-0.0933154631953793	0.5296870025882567	0.0561866514911934	-0.1692232461237978	0.04960091879533006	-0.01183252927977869	-0.2357433642151298	0.05976857784252647	0.02128669726794263	0.1693809955614962	-14.44229378167831	-9.018020166987654	3.731179716430676	-4.569145175155454	-533.9670050676409	-42.03869535442409	-21.50152184688877	0.8868692436435055	0.5760356136105678	-0.2499185633648131	-1.895884050891127	0.7030350065045001	-0.3464489854387664	1.016501844288886	-1.8169275892399	-1.816927589247929	-0.03171590659454195	0.1915534589701099	-0.6976020259405555	0.443902903640908	-4.945811177158412e-07	4.203801732175116e-10	3.112250971671448e-06	2.515216266947499e-07	-5.830754337032322e-07	1.011405049621459e-07	-4.205812204765307e-07
